<svg viewBox="0 0 169 61" fill="none" xmlns="http://www.w3.org/2000/svg"><path d="M168.51 6.15a1.33 1.33 0 0 0-2.52-.83l2.52.83Zm-34.3 31.99.2 1.3-.2-1.3Zm-39.28-21.9 1.33-.01h-1.33Zm11.77-14.24.09 1.33-.1-1.33Zm12.49 10.39-1.25.45 1.25-.45Zm-33.32 35.18.14 1.32-.14-1.32Zm-35.78-22.57 1.32-.07-1.32.07Zm8.51-10.96.33 1.28-.33-1.28Zm-25.77 45.23.1-1.32-.1 1.32Zm-31.46-19.55.3-1.3a1.32 1.32 0 0 0-1.55 1.74l1.25-.44Zm11.6 4.06a1.33 1.33 0 0 0 .6-2.58l-.6 2.58Zm-8.6 8.49a1.33 1.33 0 0 0 2.5-.88l-2.5.88Zm162.88-46.54-1.26-.4-.02.06-.08.23-.33.88a64.74 64.74 0 0 1-7.03 13.28c-5.2 7.5-13.19 15.26-24.53 17.05l.42 2.62c12.36-1.95 20.9-10.39 26.29-18.16a67.55 67.55 0 0 0 7.77-15.05l.02-.07v-.02l-1.25-.42Zm-33.25 31.1c-8.85 1.4-18.35-.23-25.62-4.04-7.28-3.8-12.07-9.64-12.12-16.56l-2.65.02c.06 8.27 5.78 14.83 13.54 18.9 7.78 4.06 17.86 5.78 27.27 4.3l-.42-2.62Zm-37.74-20.6c-.02-2.03.82-5.2 2.63-7.9 1.8-2.69 4.41-4.76 7.9-5l-.18-2.65c-4.55.32-7.83 3.04-9.92 6.18-2.08 3.1-3.1 6.78-3.08 9.39l2.65-.02Zm10.53-12.9a8.86 8.86 0 0 1 7.42 2.95c1.8 1.93 2.97 4.46 3.73 6.56l2.5-.9c-.81-2.23-2.13-5.15-4.3-7.47a11.5 11.5 0 0 0-9.53-3.79l.18 2.65Zm11.15 9.5c3.03 8.39-.2 16.12-6.7 22.16-6.54 6.07-16.22 10.24-25.52 11.27l.3 2.63c9.8-1.08 20.03-5.47 27.02-11.95 7-6.51 10.9-15.31 7.4-25l-2.5.9Zm-32.22 33.43c-7.97.88-16.4-.6-22.9-4.26-6.47-3.64-10.97-9.38-11.4-17.07l-2.65.15c.5 8.8 5.68 15.25 12.76 19.23 7.04 3.96 16.03 5.51 24.48 4.58l-.29-2.63Zm-34.3-21.33a8.93 8.93 0 0 1 1.64-6.05c1.2-1.6 3.13-2.86 5.87-3.56l-.66-2.57c-3.2.82-5.68 2.36-7.32 4.53a11.57 11.57 0 0 0-2.18 7.8l2.64-.15Zm7.5-9.6a7.13 7.13 0 0 1 6.25 1.1c1.76 1.26 3.26 3.35 4.47 5.95l2.4-1.12c-1.31-2.81-3.05-5.35-5.32-6.99a9.77 9.77 0 0 0-8.45-1.52l.66 2.57Zm10.72 7.05c4.08 8.71-.23 17.84-8.34 24.85-8.09 7-19.48 11.42-28.37 10.72l-.2 2.64c9.76.78 21.82-4.01 30.3-11.35 8.47-7.33 13.84-17.66 9.01-27.98l-2.4 1.12Zm-36.7 35.57c-6.9-.55-14.5-5.21-20.51-9.94a96.75 96.75 0 0 1-10.04-9.14l-.03-.04h-.01l-.98.89-.97.9.01.01.04.04a35.67 35.67 0 0 0 .72.76 99.38 99.38 0 0 0 9.62 8.67c6.06 4.76 14.19 9.87 21.93 10.49l.21-2.64Zm-31.87-16.94 11.9 2.77.6-2.58-11.9-2.77-.6 2.58Zm-.95-.85 4.25 12.1 2.5-.87-4.25-12.1-2.5.87Z" fill="#6C5FBC"/></svg>