<svg viewBox="0 0 132 233" fill="none" xmlns="http://www.w3.org/2000/svg"><path opacity=".2" d="M159.75 2c-14.43 9.06-30.77 17.58-43.86 28.34-12.8 10.52-25.05 24.06-34.63 36.68-17.65 23.24-21.56 45.28-22.81 69.86-2.07 40.55 7.92 76.49 24.9 110.85a671.87 671.87 0 0 0 37.2 66.11c4.2 6.53 7.82 14.6 15.88 18" stroke="#A596FF" stroke-width="3.215" stroke-linecap="round"/><path opacity=".2" d="M198.57 2.81c-14.86 9.33-31.69 18.11-45.17 29.19-13.2 10.84-25.8 24.8-35.67 37.78-18.17 23.94-22.2 46.65-23.49 71.97-2.12 41.77 8.17 78.8 25.67 114.2a692.12 692.12 0 0 0 38.31 68.1c4.33 6.73 8.06 15.03 16.36 18.53" stroke="#A596FF" stroke-width="3.215" stroke-linecap="round"/></svg>