<svg viewBox="0 0 375 166" fill="none" xmlns="http://www.w3.org/2000/svg"><path opacity=".2" d="M733.88-169.03c-29.36-12.53-56.32-27.03-89.79-32.95a178.62 178.62 0 0 0-73.3 2c-46.27 11.08-92.14 29.04-131.25 54.08-39.96 25.58-82.6 49.88-116.15 81.53-31.2 29.43-58.98 62.13-91.95 90.2-55.24 47.06-131.32 71.53-203.27 90.54a5210.01 5210.01 0 0 1-114.6 29.1c-24.02 5.77-49.18 9.43-72.28 18.06" stroke="#A596FF" stroke-width="4.017" stroke-linecap="round"/><path opacity=".2" d="M733.05-214.12c-31.72-13.53-60.86-29.18-97.01-35.57-25.83-4.57-52.4-4.24-79.21 2.18-49.99 11.96-99.55 31.37-141.81 58.41-43.18 27.64-89.26 53.89-125.51 88.08-33.72 31.78-63.73 67.1-99.36 97.43-59.7 50.82-141.9 77.26-219.64 97.8a5632.12 5632.12 0 0 1-123.83 31.45c-25.95 6.23-53.14 10.19-78.1 19.5" stroke="#A596FF" stroke-width="4.017" stroke-linecap="round"/></svg>