<svg viewBox="0 0 22 19" fill="none" xmlns="http://www.w3.org/2000/svg"><path fill-rule="evenodd" clip-rule="evenodd" d="M.02 6.66c0-3.38 2.97-6 6.46-6 1.8 0 3.38.85 4.52 1.94a6.6 6.6 0 0 1 4.51-1.93c3.5 0 6.46 2.6 6.46 6 0 2.31-.99 4.35-2.36 6.08a22.84 22.84 0 0 1-4.87 4.37c-.65.45-1.32.87-1.92 1.18-.57.29-1.23.56-1.82.56-.6 0-1.25-.27-1.82-.56-.6-.3-1.27-.73-1.92-1.18a22.84 22.84 0 0 1-4.88-4.37 9.79 9.79 0 0 1-2.36-6.09Zm6.46-4.11c-2.6 0-4.58 1.92-4.58 4.11 0 1.76.75 3.4 1.96 4.92a21 21 0 0 0 4.47 4 16 16 0 0 0 1.7 1.04c.54.28.85.35.97.35.11 0 .43-.07.96-.35.5-.25 1.09-.62 1.7-1.05a20.99 20.99 0 0 0 4.48-4 7.93 7.93 0 0 0 1.95-4.9c0-2.2-1.97-4.12-4.58-4.12-1.5 0-2.9.9-3.77 2.03a.94.94 0 0 1-1.49 0 4.96 4.96 0 0 0-3.77-2.03Z" fill="#323142"/></svg>