<svg viewBox="0 0 59 45" fill="none" xmlns="http://www.w3.org/2000/svg"><path fill-rule="evenodd" clip-rule="evenodd" d="M36.8 44.25c-3.1-6-4.66-12.52-4.66-19.56 0-7.14 1.89-13.05 5.67-17.7 3.77-4.66 9.65-6.99 17.62-6.99v9.78c-2.8 0-4.84.62-6.13 1.87-1.3 1.24-1.94 3.62-1.94 7.14v1.55h11.33v23.91h-21.9Zm-32.14 0c-3.1-6-4.66-12.52-4.66-19.56 0-7.14 1.89-13.04 5.67-17.7 3.78-4.66 9.65-6.99 17.62-6.99v9.78c-2.8 0-4.84.62-6.13 1.87-1.3 1.24-1.94 3.62-1.94 7.14v1.55h11.33v23.91h-21.9Z" fill="#DADADA"/></svg>