<svg viewBox="0 0 375 748" fill="none" xmlns="http://www.w3.org/2000/svg"><mask id="a" style="mask-type:alpha" maskUnits="userSpaceOnUse" x="0" y="0" width="375" height="748"><path fill="#201F1F" d="M0 0h375v748h-375z"/></mask><g mask="url(#a)" stroke="#A596FF" stroke-linecap="round"><path opacity=".2" d="M402.75 517c-14.43 9.06-30.77 17.58-43.86 28.34-12.8 10.52-25.05 24.06-34.63 36.68-17.64 23.24-21.56 45.28-22.81 69.86-2.06 40.55 7.92 76.49 24.9 110.85a671.77 671.77 0 0 0 37.2 66.11c4.2 6.53 7.82 14.6 15.88 18" stroke-width="3.215"/><path opacity=".2" d="M441.57 517.81c-14.86 9.33-31.69 18.11-45.17 29.19-13.2 10.84-25.8 24.8-35.67 37.78-18.17 23.94-22.2 46.65-23.49 71.97-2.12 41.77 8.17 78.8 25.67 114.2a692.12 692.12 0 0 0 38.31 68.1c4.33 6.73 8.06 15.03 16.36 18.54" stroke-width="3.215"/><path opacity=".2" d="M733.88-169.03c-29.36-12.53-56.32-27.03-89.79-32.95a178.62 178.62 0 0 0-73.3 2c-46.27 11.08-92.14 29.04-131.25 54.08-39.96 25.58-82.6 49.88-116.15 81.53-31.2 29.43-58.98 62.13-91.95 90.2-55.24 47.06-131.32 71.53-203.27 90.54a5210.01 5210.01 0 0 1-114.6 29.1c-24.02 5.77-49.18 9.43-72.28 18.06" stroke-width="4.017"/><path opacity=".2" d="M733.05-214.12c-31.72-13.53-60.86-29.18-97.01-35.57-25.83-4.57-52.4-4.24-79.21 2.18-49.99 11.96-99.55 31.37-141.81 58.41-43.18 27.64-89.26 53.89-125.51 88.08-33.72 31.78-63.73 67.1-99.36 97.43-59.7 50.82-141.9 77.26-219.64 97.8a5632.12 5632.12 0 0 1-123.83 31.45c-25.95 6.23-53.14 10.19-78.1 19.5" stroke-width="4.017"/></g></svg>