<svg viewBox="0 0 112 43" fill="none" xmlns="http://www.w3.org/2000/svg"><rect x="3.674" y="4.979" width="42.267" height="37.337" rx="6.97" fill="#6C5FBC"/><rect x="1.008" y="1.008" width="40.252" height="35.322" rx="5.962" fill="#DBD9EE" stroke="#6C5FBC" stroke-width="2.015"/><path d="m32.62 12.05-22.9-.1m22.89 4.69-5.1-.03c-2.1 0-3.8-2.07-3.8-4.6.01-2.53 1.73-4.58 3.83-4.57l5.1.03m-15.28 19.25-6.65-.07c-.55 0-1-.54-1.02-1.2l-.04-1.72c-.01-.69.45-1.27 1.02-1.27l6.58.08.11 4.18Zm10.45 2.49-9.4-.12c-.55 0-1-.54-1.01-1.2l-.12-5.37 15.27.2.02.68c.07 3.24-2.07 5.85-4.76 5.81Z" stroke="#6C5FBC" stroke-width="2.084" stroke-linecap="round" stroke-linejoin="round"/><path d="M69.3 21.65a7 7 0 0 1-.08 1.14h-8.57a2.73 2.73 0 0 0 2.81 2.71c1.1 0 1.89-.47 2.35-1.42h3.2a5.4 5.4 0 0 1-5.48 3.88 6.25 6.25 0 0 1-3.05-.74 5.46 5.46 0 0 1-2.1-2.14 6.6 6.6 0 0 1-.74-3.18c0-1.21.25-2.28.74-3.2a5.17 5.17 0 0 1 2.08-2.12 6.25 6.25 0 0 1 3.07-.74 6.1 6.1 0 0 1 2.98.72 4.97 4.97 0 0 1 2.06 2.06c.5.87.74 1.88.74 3.03Zm-3.06-.85a2.32 2.32 0 0 0-.83-1.82 2.9 2.9 0 0 0-1.97-.7 2.7 2.7 0 0 0-1.86.68c-.5.43-.8 1.05-.91 1.84h5.57Zm4.47 1.06c0-1.19.23-2.24.7-3.16a5.3 5.3 0 0 1 1.93-2.12 5.17 5.17 0 0 1 2.73-.74 4.72 4.72 0 0 1 3.87 1.87v-1.68h2.99v11.74h-2.99v-1.72c-.38.55-.9 1.01-1.59 1.38-.66.35-1.43.53-2.3.53-1 0-1.9-.26-2.71-.77a5.46 5.46 0 0 1-1.93-2.13c-.47-.94-.7-2-.7-3.2Zm9.23.04c0-.72-.14-1.33-.42-1.84a2.9 2.9 0 0 0-1.14-1.19 3 3 0 0 0-1.55-.42 3 3 0 0 0-2.67 1.59 3.7 3.7 0 0 0-.42 1.82c0 .7.14 1.32.42 1.86.3.52.68.93 1.14 1.2a3.11 3.11 0 0 0 3.08.03c.48-.28.86-.68 1.14-1.19.28-.52.42-1.14.42-1.86Zm9.34-3.43v5.67c0 .4.09.69.27.87.2.17.52.26.97.26h1.38v2.5h-1.86c-2.5 0-3.75-1.22-3.75-3.65v-5.65h-1.4v-2.44h1.4v-2.9h2.99v2.9h2.62v2.44h-2.62Zm7.72-6.37v15.67h-2.97v-15.67h2.97Zm14.15 3.93-7.26 17.28h-3.16l2.54-5.84-4.7-11.44h3.33l3.02 8.2 3.08-8.2h3.15Z" fill="#6C5FBC"/></svg>