<svg viewBox="0 0 123 31" fill="none" xmlns="http://www.w3.org/2000/svg"><path d="M32.33 10.7h12.44v2.32h-4.9v13.06h-2.68v-13.06h-4.88l.02-2.32Zm11.91 4.24h2.3v2.16h.04a3.4 3.4 0 0 1 1.19-1.66 3.3 3.3 0 0 1 2.07-.8l.6.02c.1.02.22.04.32.04v2.36a4.5 4.5 0 0 0-.53-.09c-.19-.02-.35-.04-.54-.04a2.85 2.85 0 0 0-2.13.97c-.27.32-.5.71-.66 1.19a5.02 5.02 0 0 0-.24 1.64v5.28h-2.46l.04-11.07Zm17.8 11.14h-2.43v-1.56h-.04c-.3.57-.75 1-1.35 1.35-.6.35-1.2.51-1.82.51-1.46 0-2.53-.34-3.18-1.08-.66-.72-.99-1.83-.99-3.28v-7.08h2.46v6.83c0 .99.19 1.68.58 2.07.37.41.9.62 1.58.62.51 0 .94-.09 1.29-.25a2.27 2.27 0 0 0 1.31-1.6c.1-.37.14-.78.14-1.2v-6.47h2.46v11.14h-.02Zm4.18-3.57c.08.72.34 1.2.82 1.52.47.28 1.04.43 1.7.43a5.63 5.63 0 0 0 1.6-.27c.26-.1.47-.25.63-.45.17-.2.25-.45.23-.76a1.1 1.1 0 0 0-.35-.78 2.9 2.9 0 0 0-.82-.49 7.11 7.11 0 0 0-1.15-.3l-1.31-.3c-.45-.1-.9-.22-1.33-.36-.43-.15-.8-.33-1.15-.6a2.56 2.56 0 0 1-.8-.94c-.2-.4-.3-.84-.3-1.42 0-.61.13-1.1.44-1.51.29-.41.68-.74 1.13-.99.45-.24.96-.43 1.52-.53a8.82 8.82 0 0 1 3.22.04 3.93 3.93 0 0 1 2.46 1.66c.28.43.45.97.53 1.58h-2.56c-.13-.6-.4-.98-.8-1.19-.43-.2-.9-.3-1.46-.3l-.61.03c-.25.05-.46.09-.68.17-.2.08-.39.2-.53.35a.82.82 0 0 0-.23.6c0 .3.1.52.3.7.21.2.48.34.83.48.33.12.72.23 1.15.3l1.33.3c.45.1.88.22 1.31.36a3.6 3.6 0 0 1 1.97 1.52c.2.37.3.84.3 1.37 0 .66-.14 1.21-.44 1.69-.31.45-.7.84-1.17 1.12a5.8 5.8 0 0 1-1.6.64 7.34 7.34 0 0 1-3.69-.04 4.96 4.96 0 0 1-1.56-.72 3.44 3.44 0 0 1-1.03-1.2 3.95 3.95 0 0 1-.4-1.73h2.48v.02h.02Zm8.1-7.57h1.86v-3.36h2.46v3.34h2.21v1.83h-2.21v5.94c0 .27.02.48.04.68.02.18.08.35.14.47.09.12.2.23.35.29.17.06.37.1.66.1.16 0 .35 0 .51-.02.16-.02.35-.04.51-.08v1.9c-.26.05-.53.07-.8.09-.26.04-.5.04-.8.04a5.3 5.3 0 0 1-1.55-.19c-.4-.12-.7-.3-.93-.53a1.9 1.9 0 0 1-.45-.88 7 7 0 0 1-.14-1.23v-6.56h-1.87v-1.87.04Zm8.25 0h2.32v1.52h.04c.35-.65.82-1.1 1.44-1.4a4.65 4.65 0 0 1 2-.42 5 5 0 0 1 2.3.47c.66.3 1.2.72 1.62 1.27.43.53.76 1.17.97 1.89a8.4 8.4 0 0 1 .04 4.46c-.2.7-.5 1.34-.89 1.87a4.36 4.36 0 0 1-3.62 1.78c-.35 0-.72-.04-1.07-.1-.35-.06-.7-.16-1.02-.3a3.68 3.68 0 0 1-1.6-1.34h-.04v5.56h-2.46v-15.26h-.03Zm8.6 5.58a5 5 0 0 0-.8-2.7c-.27-.37-.6-.66-.97-.89a2.62 2.62 0 0 0-1.33-.32c-1.03 0-1.8.34-2.34 1.06a4.86 4.86 0 0 0-.78 2.87c0 .58.06 1.09.2 1.56.15.47.34.88.62 1.23a2.83 2.83 0 0 0 2.32 1.12 2.78 2.78 0 0 0 2.38-1.22c.24-.37.43-.78.53-1.25.1-.5.16-.97.16-1.46Zm4.32-9.82h2.46v2.32h-2.46v-2.32Zm0 4.24h2.46v11.14h-2.46v-11.14Zm4.65-4.24h2.46v15.38h-2.46v-15.38Zm9.97 15.68c-.89 0-1.69-.14-2.38-.45a5.4 5.4 0 0 1-1.77-1.2 5.27 5.27 0 0 1-1.08-1.87 7.29 7.29 0 0 1 0-4.7 4.92 4.92 0 0 1 2.85-3.07 6.2 6.2 0 0 1 2.38-.45 5.76 5.76 0 0 1 4.14 1.65c.47.52.84 1.16 1.08 1.87a7.16 7.16 0 0 1 0 4.7 4.91 4.91 0 0 1-2.85 3.07c-.7.29-1.47.45-2.37.45Zm0-1.94a2.84 2.84 0 0 0 2.4-1.25c.26-.37.45-.8.57-1.25a5.62 5.62 0 0 0 0-2.85c-.12-.48-.3-.89-.58-1.25a2.9 2.9 0 0 0-2.4-1.23 2.83 2.83 0 0 0-2.4 1.23c-.26.36-.44.77-.57 1.25a5.58 5.58 0 0 0 0 2.85 3.37 3.37 0 0 0 1.56 2.15c.41.24.88.35 1.42.35Zm6.35-9.5h1.87v-3.36h2.46v3.34h2.21v1.83h-2.21v5.94c0 .27.02.48.04.68.02.18.08.35.14.47.08.12.2.23.35.29.16.06.37.1.66.1.16 0 .34 0 .5-.02.17-.02.36-.04.52-.08v1.9c-.27.05-.53.07-.8.09-.27.04-.51.04-.8.04a5.3 5.3 0 0 1-1.56-.19c-.39-.12-.7-.3-.92-.53a1.91 1.91 0 0 1-.45-.88 6.95 6.95 0 0 1-.14-1.23v-6.56h-1.87v-1.87.04Z" fill="#000"/><path d="M29.46 10.7h-11.26l-3.46-10.7-3.49 10.7-11.25-.02 9.1 6.62-3.48 10.7 9.1-6.62 9.1 6.62-3.46-10.7 9.1-6.6Z" fill="#00B67A"/><path d="m21.14 19.72-.78-2.42-5.62 4.08 6.4-1.66Z" fill="#005128"/></svg>